<?xml version="1.0" standalone="no"?>
<!DOCTYPE svg PUBLIC "-//W3C//DTD SVG 20010904//EN"
 "http://www.w3.org/TR/2001/REC-SVG-20010904/DTD/svg10.dtd">
<svg version="1.0" xmlns="http://www.w3.org/2000/svg"
 width="260.000000pt" height="260.000000pt" viewBox="0 0 260.000000 260.000000"
 preserveAspectRatio="xMidYMid meet">
<metadata>
Created by potrace 1.14, written by Peter Selinger 2001-2017
</metadata>
<g transform="translate(0.000000,260.000000) scale(0.100000,-0.100000)"
fill="#000000" stroke="none">
<path d="M905 2453 c-34 -8 -66 -45 -98 -113 -16 -36 -48 -103 -69 -150 -22
-47 -58 -141 -80 -210 -64 -201 -51 -184 -145 -182 -44 2 -91 5 -104 7 -13 3
-74 8 -135 11 -97 6 -115 5 -142 -12 -85 -49 -88 -187 -11 -361 20 -45 75
-116 153 -197 l46 -48 -19 -32 c-10 -17 -44 -76 -76 -131 -31 -55 -68 -115
-82 -133 -116 -153 -34 -261 187 -244 47 3 172 6 279 7 l194 0 9 -30 c27 -89
100 -312 107 -325 4 -8 29 -81 56 -163 l48 -147 659 0 c656 0 658 0 658 20 0
59 133 215 219 259 l41 21 0 499 0 499 -41 39 c-86 80 -134 188 -174 388 -18
87 -46 196 -106 405 -42 149 -63 180 -121 180 -40 0 -89 -51 -184 -192 -132
-196 -250 -338 -282 -338 -27 0 -351 69 -407 87 l-50 15 -34 107 c-60 190
-137 350 -206 426 -31 35 -57 46 -90 38z"/>
</g>
</svg>
